<svg width="40" height="40" viewBox="0 0 40 40" fill="none" xmlns="http://www.w3.org/2000/svg">
<g opacity="0.7" clip-path="url(#clip0_13_2139)">
<path d="M10.0606 40C9.47759 39.831 8.85942 39.7353 8.31841 39.4785C6.05181 38.4033 4.86724 36.5801 4.84282 34.0722C4.80962 30.6943 4.83501 27.3154 4.83501 23.9365C4.83501 21.7539 4.8311 19.5703 4.84087 17.3877C4.84184 17.122 4.77642 16.9306 4.58306 16.7383C2.50298 14.666 1.91313 11.5351 3.09966 8.93748C4.35747 6.18552 7.04595 4.56833 10.0225 4.78806C10.2676 4.80662 10.3594 4.71482 10.462 4.52146C11.7168 2.16208 13.6504 0.707983 16.2833 0.204077C19.6963 -0.449244 23.2813 1.29587 24.8829 4.40525C25.0342 4.70017 25.1788 4.80662 25.5274 4.77927C29.0391 4.50193 32.376 7.23435 32.8321 10.749C33.1407 13.124 32.4327 15.1552 30.7286 16.8388C30.6739 16.8935 30.5987 16.9277 30.5791 17.0195C31.0196 16.8701 31.4512 16.6826 31.9024 16.5781C34.752 15.9219 37.5264 18.0556 37.5821 20.9775C37.6241 23.2119 37.6172 25.4482 37.5821 27.6826C37.5567 29.3476 36.7784 30.6347 35.4014 31.5586C33.9131 32.5576 32.4229 33.5527 30.9249 34.5361C30.6573 34.7119 30.5215 34.9052 30.462 35.2343C30.0176 37.6826 28.0323 39.5693 25.5665 39.9297C25.4922 39.9404 25.4209 39.9756 25.3487 39.999H10.0606V40ZM7.18755 18.4551C7.18462 18.4902 7.17583 18.542 7.17583 18.5927C7.17583 23.7656 7.16118 28.9384 7.18266 34.1113C7.19145 36.167 8.72368 37.6504 10.795 37.6562C15.3965 37.6679 19.9991 37.6719 24.6006 37.6445C25.1426 37.6416 25.7276 37.5234 26.2159 37.2939C27.6153 36.6367 28.2344 35.4551 28.2344 33.9297C28.2344 28.8867 28.2344 23.8437 28.2344 18.8008C28.2344 18.6758 28.2344 18.5508 28.2344 18.3945C25.8077 19.166 23.6084 18.7773 21.5948 17.3017C20.1231 18.542 18.4522 19.0029 16.5303 18.6816C16.5303 19.1572 16.5508 19.5976 16.5264 20.0351C16.4473 21.4687 15.7676 22.5215 14.4629 23.1357C14.2237 23.249 14.1895 23.3847 14.1905 23.6113C14.1963 26.1982 14.1944 28.7842 14.1944 31.3711C14.1944 31.5527 14.2032 31.7363 14.1846 31.917C14.125 32.5185 13.627 32.9726 13.0342 32.9785C12.459 32.9834 11.9561 32.5556 11.8702 31.9756C11.8497 31.8349 11.8555 31.6904 11.8555 31.5478C11.8555 28.8965 11.8545 26.2451 11.8555 23.5937C11.8555 23.4101 11.8604 23.2627 11.6397 23.1611C10.2012 22.5 9.52641 21.3486 9.5147 19.7842C9.51274 19.4629 9.5147 19.1416 9.5147 18.8594C8.71977 18.7217 7.97075 18.5918 7.18755 18.456V18.4551ZM14.1934 18.4931H14.1963C14.1963 17.999 14.1827 17.5049 14.1993 17.0117C14.2305 16.1035 15.0391 15.5918 15.8721 15.9433C15.9913 15.9941 16.1055 16.0576 16.2237 16.1113C16.8536 16.3984 17.5079 16.5156 18.1973 16.4072C19.1534 16.2568 19.9151 15.789 20.5137 15.0293C21.0948 14.2929 21.8116 14.2646 22.4766 14.9267C22.5411 14.9912 22.6016 15.0595 22.668 15.1211C23.8858 16.2578 25.3135 16.6972 26.9415 16.3183C29.4629 15.7304 31.0274 13.25 30.4698 10.7812C29.8399 7.98923 27.0606 6.63962 24.8916 7.22556C23.961 7.47751 23.5225 7.2158 23.1739 6.30466C22.8877 5.55466 22.5079 4.86423 21.9512 4.28708C20.459 2.74021 18.6436 2.12302 16.5323 2.55857C14.4356 2.99119 13.0372 4.2822 12.254 6.26169C11.8672 7.23923 11.4659 7.44626 10.4473 7.21775C8.50298 6.78318 6.5147 7.65916 5.48345 9.4033C4.46196 11.1318 4.66606 13.3711 5.99809 14.8427C7.19243 16.1631 8.68266 16.6269 10.4336 16.373C11.3165 16.2451 11.8487 16.747 11.8536 17.6386C11.8584 18.4052 11.8448 19.1728 11.8584 19.9394C11.8702 20.6142 12.3682 21.1152 13.0059 21.126C13.6592 21.1367 14.1729 20.6289 14.1905 19.9375C14.2022 19.457 14.1924 18.9756 14.1924 18.4951L14.1934 18.4931ZM30.5743 31.9726C31.8672 31.1015 33.0909 30.2969 34.294 29.4599C34.9737 28.9873 35.2481 28.2861 35.254 27.4726C35.2579 26.914 35.254 26.3554 35.254 25.7969C35.254 24.2636 35.2676 22.7304 35.25 21.1982C35.2315 19.4844 33.6875 18.3857 32.1094 18.9414C31.1573 19.2763 30.5762 20.1533 30.5752 21.2851C30.5723 24.7275 30.5743 28.1709 30.5743 31.6133V31.9736V31.9726Z" fill="white"/>
<path d="M21.2149 27.0157C21.2149 25.4688 21.208 23.9229 21.2178 22.376C21.2236 21.463 22.0508 20.877 22.8389 21.2266C23.3438 21.4503 23.5576 21.8682 23.5566 22.4151C23.5518 24.0264 23.5547 25.6378 23.5547 27.2491C23.5547 28.7569 23.5645 30.2637 23.5498 31.7716C23.542 32.6553 22.7041 33.2257 21.9307 32.8819C21.4258 32.6583 21.2119 32.2403 21.2129 31.6934C21.2178 30.1339 21.2149 28.5743 21.2149 27.0147V27.0157Z" fill="white"/>
</g>
<defs>
<clipPath id="clip0_13_2139">
<rect width="40" height="40" fill="white"/>
</clipPath>
</defs>
</svg>
