<svg width="6316" height="4732" viewBox="0 0 6316 4732" fill="none"
    xmlns="http://www.w3.org/2000/svg">
    <rect width="6316" height="4732" fill="white"/>
    <g clip-path="url(#clip0_101_50)">
        <path d="M2590.11 2246.26L2635.42 2160.87H2656.74L2600.01 2265.13V2331.18H2580.21V2266.06L2523.36 2160.87H2545.03L2590.11 2246.26ZM2784.51 2331.18H2689.69V2160.87H2784.51V2178.35H2709.5V2233.45H2780.2V2250.69H2709.5V2313.7H2784.51V2331.18ZM2938.62 2331.18L2917.65 2277.13H2849.39L2828.54 2331.18H2808.5L2875.13 2160.18H2892.95L2959.12 2331.18H2938.62ZM2911.71 2259.54L2891.79 2205.84C2891.32 2204.44 2890.55 2202.15 2889.46 2198.97C2888.45 2195.78 2887.4 2192.48 2886.31 2189.06C2885.23 2185.65 2884.33 2182.89 2883.63 2180.79C2882.86 2183.98 2882 2187.16 2881.07 2190.35C2880.22 2193.45 2879.36 2196.36 2878.51 2199.08C2877.65 2201.72 2876.92 2203.97 2876.3 2205.84L2856.03 2259.54H2911.71ZM3038.32 2160.87C3052.3 2160.87 3063.83 2162.62 3072.91 2166.12C3082.08 2169.53 3088.91 2174.78 3093.42 2181.84C3097.92 2188.91 3100.17 2197.92 3100.17 2208.87C3100.17 2217.87 3098.54 2225.41 3095.28 2231.47C3092.02 2237.44 3087.75 2242.3 3082.47 2246.03C3077.19 2249.75 3071.56 2252.63 3065.58 2254.65L3112.29 2331.18H3089.22L3047.52 2260.12H3012.11V2331.18H2992.31V2160.87H3038.32ZM3037.15 2178H3012.11V2243.35H3039.13C3053.03 2243.35 3063.25 2240.51 3069.77 2234.84C3076.37 2229.17 3079.67 2220.83 3079.67 2209.8C3079.67 2198.23 3076.18 2190.03 3069.19 2185.22C3062.28 2180.41 3051.6 2178 3037.15 2178Z" fill="black"/>
        <path d="M3385.62 254.389L3225.18 424.989L3270.25 467.368L3430.68 296.769L3385.62 254.389Z" fill="black"/>
        <path d="M2950.8 254.599L2905.74 296.973L3066.15 467.572L3111.22 425.199L2950.8 254.599Z" fill="black"/>
        <path d="M3198.19 200.5H3136.34V408.168H3198.19V200.5Z" fill="black"/>
        <path d="M2933.09 827.923L2897.74 836.76L3012.62 1238.84L3047.97 1230L2933.09 827.923ZM2818.21 933.966L2782.86 942.803L2880.07 1274.19L2915.41 1265.35L2818.21 933.966ZM2707.75 1057.68L2672.4 1066.52L2743.09 1313.95L2778.44 1305.12L2707.75 1057.68ZM2707.75 1057.68L2672.4 1066.52L2743.09 1313.95L2778.44 1305.12L2707.75 1057.68ZM2818.21 933.966L2782.86 942.803L2880.07 1274.19L2915.41 1265.35L2818.21 933.966ZM2933.09 827.923L2897.74 836.76L3012.62 1238.84L3047.97 1230L2933.09 827.923ZM2933.09 827.923L2897.74 836.76L3012.62 1238.84L3047.97 1230L2933.09 827.923ZM2818.21 933.966L2782.86 942.803L2880.07 1274.19L2915.41 1265.35L2818.21 933.966ZM2707.75 1057.68L2672.4 1066.52L2743.09 1313.95L2778.44 1305.12L2707.75 1057.68ZM3220.29 1318.37L3180.52 1305.12L3193.78 1344.88L3233.54 1358.14L3220.29 1318.37ZM2707.75 1057.68L2672.4 1066.52L2743.09 1313.95L2778.44 1305.12L2707.75 1057.68ZM2818.21 933.966L2782.86 942.803L2880.07 1274.19L2915.41 1265.35L2818.21 933.966ZM2933.09 827.923L2897.74 836.76L3012.62 1238.84L3047.97 1230L2933.09 827.923ZM3145.17 1397.91L3154.01 1362.56L3114.24 1375.81L3100.99 1420L3154.01 1402.32L3145.17 1397.91ZM2897.74 836.76L3012.62 1238.84L3047.97 1230L2933.09 827.923L2897.74 836.76ZM2782.86 942.803L2880.07 1274.19L2915.41 1265.35L2818.21 933.966L2782.86 942.803ZM2672.4 1066.52L2743.09 1313.95L2778.44 1305.12L2707.75 1057.68L2672.4 1066.52ZM2707.75 1057.68L2672.4 1066.52L2743.09 1313.95L2778.44 1305.12L2707.75 1057.68ZM2818.21 933.966L2782.86 942.803L2880.07 1274.19L2915.41 1265.35L2818.21 933.966ZM2933.09 827.923L2897.74 836.76L3012.62 1238.84L3047.97 1230L2933.09 827.923ZM2933.09 827.923L2897.74 836.76L3012.62 1238.84L3047.97 1230L2933.09 827.923ZM2818.21 933.966L2782.86 942.803L2880.07 1274.19L2915.41 1265.35L2818.21 933.966ZM2707.75 1057.68L2672.4 1066.52L2743.09 1313.95L2778.44 1305.12L2707.75 1057.68ZM2707.75 1057.68L2672.4 1066.52L2743.09 1313.95L2778.44 1305.12L2707.75 1057.68ZM2818.21 933.966L2782.86 942.803L2880.07 1274.19L2915.41 1265.35L2818.21 933.966ZM2933.09 827.923L2897.74 836.76L3012.62 1238.84L3047.97 1230L2933.09 827.923Z" fill="black"/>
        <path d="M3092.15 1428.84L3109.83 1371.4L3162.85 1353.72L3154.01 1393.49L3180.52 1402.32L3092.15 1428.84ZM3118.66 1380.23L3114.24 1411.16L3140.75 1402.32L3149.59 1375.81L3118.66 1380.23ZM3237.96 1366.98L3184.94 1349.3L3167.27 1296.28L3220.29 1313.96L3237.96 1366.98ZM3193.78 1340.47L3220.29 1349.3L3211.45 1322.79L3184.94 1313.96L3193.78 1340.47ZM2738.67 1322.79L2663.56 1062.1L2707.74 1048.85L2782.86 1309.54L2738.67 1322.79ZM2681.23 1070.94L2747.51 1309.54L2769.6 1305.12L2703.33 1066.52L2681.23 1070.94ZM2875.65 1283.03L2778.44 938.385L2822.63 925.13L2919.83 1269.77L2875.65 1283.03ZM2791.7 947.222L2884.48 1269.77L2906.58 1265.35L2813.79 942.803L2791.7 947.222ZM3008.2 1243.26L2888.9 832.342L2933.09 819.086L3052.39 1230L3008.2 1243.26ZM2906.58 841.179L3017.04 1230L3039.13 1225.59L2928.67 836.76L2906.58 841.179Z" fill="black"/>
        <path d="M3158.43 1230L3176.1 1168.15L3039.13 695.369C3043.55 660.021 3030.29 629.092 3003.78 607C2981.69 589.326 2950.76 580.489 2924.25 589.326C2906.58 567.234 2884.48 553.978 2857.97 553.978C2827.04 553.978 2796.11 567.233 2774.02 584.907C2743.09 571.652 2707.75 576.07 2676.82 589.326C2650.31 602.581 2628.21 629.092 2619.38 655.603C2579.61 664.44 2557.52 686.532 2544.26 721.88C2508.91 735.135 2486.82 752.809 2477.98 770.483C2464.73 796.994 2460.31 827.923 2469.15 854.434L2491.24 929.548L2416.13 951.64C2363.1 969.314 2332.18 1026.75 2345.43 1079.78L2407.29 1287.44C2420.54 1336.05 2464.73 1362.56 2517.75 1358.14L2614.96 1353.72L2667.98 1534.88L3105.41 1402.32L3118.66 1358.14L2690.07 1486.28L2672.4 1442.09L3136.34 1305.12L3145.17 1269.77V1265.35L3127.5 1269.77L2659.14 1411.16L2504.5 872.108L2557.52 854.434L2588.45 960.477C2601.7 1004.66 2645.89 1031.17 2690.07 1017.92C2729.84 1004.66 2756.35 960.477 2747.51 916.293C2778.44 898.619 2796.11 858.853 2787.28 823.505L2778.44 792.575L3012.62 721.88L3158.43 1230ZM2584.03 1265.35H2513.33C2508.91 1265.35 2504.5 1265.35 2500.08 1265.35L2442.64 1062.1L2517.75 1040.01L2584.03 1265.35ZM2508.91 1009.08L2433.8 1031.17C2416.13 1035.59 2407.29 1053.27 2411.71 1070.94L2473.57 1278.61C2477.98 1287.44 2486.82 1300.7 2517.75 1300.7H2597.28L2606.12 1336.05H2517.75C2495.66 1336.05 2451.47 1331.63 2438.22 1287.44L2376.36 1079.78C2367.52 1044.43 2385.2 1004.66 2420.54 995.825L2495.66 973.733L2508.91 1009.08ZM2729.84 766.065L2747.51 832.342C2756.35 858.853 2738.67 880.945 2716.58 889.782L2698.91 894.2L2707.75 925.13C2716.58 951.64 2698.91 973.733 2676.82 982.57C2654.72 991.407 2628.21 973.733 2619.38 951.64L2584.03 810.249L2500.08 836.76C2500.08 823.505 2500.08 810.249 2508.91 796.994C2517.75 779.32 2535.42 766.065 2561.94 761.646L2570.77 757.228L2575.19 748.391C2584.03 717.461 2601.7 699.788 2637.05 695.369H2650.31V682.114C2654.72 660.021 2667.98 637.929 2690.07 629.092C2712.16 615.837 2743.09 615.837 2769.6 629.092L2782.86 633.511L2791.7 620.255C2804.95 602.581 2831.46 589.326 2857.97 589.326C2871.23 589.326 2893.32 593.744 2906.58 615.837L2915.41 629.092L2928.67 624.674C2950.76 615.837 2972.85 620.255 2990.53 633.511C3003.78 646.766 3012.62 664.44 3012.62 682.114L2729.84 766.065Z" fill="black"/>
        <path d="M2663.56 1556.97L2610.54 1375.81H2517.75C2455.89 1375.81 2411.71 1349.3 2398.45 1300.7L2336.59 1093.03C2318.92 1035.59 2354.27 973.733 2411.71 956.059L2482.4 933.967L2460.31 863.271C2451.47 832.342 2455.89 801.412 2469.15 774.902C2477.98 757.228 2495.66 735.135 2535.42 721.88C2548.68 686.532 2570.77 664.44 2610.54 651.184C2619.37 624.674 2641.47 598.163 2667.98 580.489C2698.91 562.815 2734.26 562.815 2769.6 571.652C2791.7 549.559 2827.04 536.304 2857.97 540.723C2884.48 540.723 2910.99 553.978 2928.67 576.07C2959.6 571.652 2986.11 580.489 3012.62 598.163C3039.13 620.255 3052.38 655.603 3052.38 690.951L3189.36 1163.73L3158.43 1252.1L3008.2 726.298L2782.86 792.575L2791.7 819.086C2800.53 858.852 2787.28 898.619 2756.35 920.711C2765.18 964.896 2738.67 1009.08 2694.49 1022.34C2672.4 1026.75 2650.3 1026.75 2628.21 1013.5C2606.12 1000.24 2592.86 982.57 2584.03 960.477L2557.52 863.271L2517.75 876.526L2667.98 1406.74L3158.43 1256.51L3140.75 1309.54H3136.34L2676.81 1446.51L2690.07 1499.53L3123.08 1371.4L3105.41 1428.84L2663.56 1556.97ZM2619.37 1362.56L2672.4 1543.72L3100.99 1415.58L3109.83 1389.07L2690.07 1517.2L2663.56 1437.67L3131.92 1300.7L3140.75 1274.19L2659.14 1415.58L2500.08 863.271L2566.35 845.597L2597.28 956.059C2601.7 973.733 2614.96 991.407 2632.63 1000.24C2650.3 1009.08 2667.98 1013.5 2690.07 1004.66C2729.84 991.407 2751.93 951.64 2743.09 911.874V907.456L2747.51 903.037C2778.44 885.363 2791.7 850.016 2782.86 814.668L2774.02 779.32L3021.46 704.206L3158.43 1207.91L3171.68 1168.15L3034.71 695.369C3039.13 664.44 3025.87 633.51 2999.36 611.418C2977.27 593.744 2950.76 589.326 2924.25 593.744H2919.83L2915.41 589.326C2897.74 571.652 2880.06 558.396 2853.55 558.396C2822.62 558.396 2791.7 567.233 2774.02 589.326L2769.6 593.744H2765.18C2734.25 580.489 2698.91 584.907 2672.4 598.163C2645.89 611.418 2628.21 637.929 2619.37 664.44V668.858H2614.96C2579.61 677.695 2557.52 699.788 2544.26 735.135V739.554H2539.84C2504.49 748.391 2486.82 770.483 2477.98 783.738C2464.73 805.831 2460.31 836.76 2469.15 863.271L2491.24 947.222L2407.29 973.733C2358.68 986.988 2327.76 1044.43 2341.01 1093.03L2402.87 1300.7C2416.13 1344.88 2455.89 1371.4 2508.91 1366.98L2619.37 1362.56ZM2513.33 1340.47C2486.82 1340.47 2447.05 1331.63 2433.8 1287.44L2371.94 1079.78C2358.68 1040.01 2385.2 1000.24 2420.54 986.988L2504.49 960.477L2517.75 1004.66L2433.8 1031.17C2420.54 1035.59 2411.71 1048.85 2416.13 1062.1L2477.98 1269.77C2482.4 1283.03 2500.08 1287.44 2517.75 1287.44H2601.7L2614.96 1336.05L2513.33 1340.47ZM2495.66 982.57L2424.96 1004.66C2394.03 1013.5 2376.36 1048.85 2385.2 1079.78L2447.05 1287.44C2455.89 1327.21 2495.66 1331.63 2517.75 1331.63H2597.28L2588.45 1305.12H2513.33C2477.98 1305.12 2464.73 1291.86 2464.73 1278.61L2407.29 1070.94C2402.87 1048.85 2411.71 1031.17 2433.8 1022.34L2504.49 1000.24L2495.66 982.57ZM2513.33 1269.77C2508.91 1269.77 2504.49 1269.77 2500.08 1269.77H2495.66L2433.8 1057.68L2517.75 1031.17L2584.03 1265.35L2513.33 1269.77ZM2508.91 1260.93H2513.33H2575.19L2513.33 1053.27L2451.47 1066.52L2508.91 1260.93ZM2667.98 986.988C2659.14 986.988 2650.3 986.988 2641.47 982.57C2628.21 973.733 2619.37 964.896 2614.96 951.64L2575.19 819.086L2486.82 845.597V836.76C2486.82 819.086 2491.24 805.831 2495.66 796.994C2504.49 779.32 2526.59 766.065 2553.1 757.228H2561.93V748.391C2570.77 713.043 2588.45 695.369 2628.21 690.951H2637.05V682.114C2641.47 660.021 2654.72 633.51 2681.23 624.674C2707.74 611.418 2738.67 611.418 2765.18 624.674L2774.02 629.092L2778.44 620.255C2791.7 602.581 2822.62 589.326 2849.14 589.326C2866.81 589.326 2888.9 598.163 2902.16 620.255L2906.58 629.092L2915.41 624.674C2941.92 615.837 2964.02 620.255 2981.69 633.51C2994.94 646.766 3003.78 664.44 3008.2 686.532V690.951L2734.26 770.483L2751.93 827.923C2760.77 854.434 2743.09 885.363 2716.58 894.2L2707.74 898.619L2716.58 920.711C2725.42 947.222 2707.74 978.151 2681.23 986.988C2676.81 986.988 2672.4 986.988 2667.98 986.988ZM2588.45 801.412L2628.21 947.222C2632.63 956.059 2637.05 964.896 2645.89 969.314C2654.72 973.733 2663.56 973.733 2676.81 973.733C2698.91 969.314 2707.74 947.222 2703.33 925.13L2694.49 889.782L2716.58 880.945C2738.67 876.526 2747.51 854.434 2743.09 832.342L2721 761.646L2994.94 677.695C2994.94 660.021 2986.11 646.766 2972.85 637.929C2959.6 624.674 2937.5 624.674 2919.83 629.092L2902.16 633.51L2893.32 615.837C2880.06 598.163 2862.39 589.326 2849.14 589.326C2827.04 589.326 2800.53 598.163 2787.28 615.837L2774.02 633.51L2756.35 624.674C2729.84 611.418 2707.74 611.418 2681.23 624.674C2659.14 633.51 2645.89 655.603 2645.89 673.277L2641.47 690.951L2623.79 695.369C2592.86 699.788 2575.19 713.043 2566.35 743.972L2561.93 757.228L2548.68 761.646C2526.59 766.065 2508.91 779.32 2500.08 792.575C2495.66 801.412 2491.24 810.249 2491.24 819.086L2588.45 801.412Z" fill="black"/>
        <path d="M3405.86 872.107L3290.98 1274.19L3326.33 1283.03L3441.21 880.944L3405.86 872.107ZM3520.74 978.151L3423.54 1313.95L3458.88 1322.79L3556.09 991.406L3520.74 978.151ZM3631.2 1101.87L3560.51 1349.3L3595.86 1358.14L3666.55 1110.71L3631.2 1101.87ZM3405.86 872.107L3290.98 1274.19L3326.33 1283.03L3441.21 880.944L3405.86 872.107ZM3520.74 978.151L3423.54 1313.95L3458.88 1322.79L3556.09 991.406L3520.74 978.151ZM3631.2 1101.87L3560.51 1349.3L3595.86 1358.14L3666.55 1110.71L3631.2 1101.87ZM3631.2 1101.87L3560.51 1349.3L3595.86 1358.14L3666.55 1110.71L3631.2 1101.87ZM3520.74 978.151L3423.54 1313.95L3458.88 1322.79L3556.09 991.406L3520.74 978.151ZM3405.86 872.107L3290.98 1274.19L3326.33 1283.03L3441.21 880.944L3405.86 872.107ZM3158.43 1230L3149.59 1265.35L3167.27 1260.93L3158.43 1230ZM3405.86 872.107L3290.98 1274.19L3326.33 1283.03L3441.21 880.944L3405.86 872.107ZM3520.74 978.151L3423.54 1313.95L3458.88 1322.79L3556.09 991.406L3520.74 978.151ZM3631.2 1101.87L3560.51 1349.3L3595.86 1358.14L3666.55 1110.71L3631.2 1101.87ZM3922.82 1009.08L3847.71 986.988L3869.8 911.874C3878.64 885.363 3874.22 854.433 3860.97 827.923C3852.13 810.249 3834.45 788.156 3794.69 779.32C3781.43 743.972 3759.34 721.879 3719.57 713.042C3710.74 686.532 3693.06 660.021 3662.13 646.765C3631.2 629.091 3595.86 629.091 3564.93 642.347C3542.84 611.418 3511.91 598.162 3480.98 598.162C3454.47 598.162 3427.96 611.418 3414.7 633.51C3383.77 629.091 3357.26 633.51 3335.17 651.184C3308.66 673.276 3295.4 704.205 3299.82 739.553L3176.1 1168.15L3193.78 1230L3326.33 761.646L3560.51 832.341L3551.67 863.27C3542.84 903.037 3556.09 938.384 3591.44 956.058C3578.18 1000.24 3604.69 1044.43 3648.88 1057.68C3693.06 1070.94 3737.25 1044.43 3750.5 1000.24L3781.43 894.2L3834.45 911.874L3679.81 1450.93L3220.29 1313.95L3180.52 1305.12H3171.68L3176.1 1296.28L3136.34 1305.12L3114.24 1375.81L3100.99 1420V1424.42L3670.97 1596.74L3723.99 1415.58L3821.2 1420C3878.64 1420 3918.41 1393.49 3931.66 1349.3L3993.52 1141.63C4006.77 1079.77 3975.85 1022.34 3922.82 1009.08ZM3648.88 1552.55L3158.43 1402.32L3145.17 1397.91L3154.01 1362.56L3162.85 1336.05L3189.36 1344.88L3229.12 1358.14L3666.55 1486.27L3648.88 1552.55ZM3754.92 854.434L3715.16 995.825C3706.32 1022.34 3684.23 1035.59 3657.72 1026.75C3635.62 1017.92 3617.95 995.825 3626.79 969.314L3635.62 938.384L3617.95 933.966C3595.86 925.129 3578.18 903.037 3587.02 876.526L3604.69 810.249L3330.75 730.716C3330.75 713.042 3339.59 695.369 3352.84 682.113C3370.52 668.858 3392.61 664.439 3414.7 673.276L3427.96 677.695L3436.79 664.439C3450.05 642.347 3472.14 637.928 3485.4 637.928C3511.91 637.928 3538.42 651.184 3551.67 668.858L3560.51 682.113L3573.76 677.695C3600.28 664.439 3626.79 664.439 3653.3 677.695C3675.39 690.95 3688.64 708.624 3693.06 730.716V743.972H3706.32C3741.67 748.39 3759.34 766.064 3768.18 796.993L3772.6 805.83L3781.43 810.249C3807.94 814.667 3825.62 827.923 3834.45 845.597C3843.29 858.852 3843.29 872.107 3843.29 885.363L3754.92 854.434ZM3816.78 1088.61L3891.89 1110.71L3834.45 1313.95C3830.04 1313.95 3830.04 1313.95 3821.2 1313.95H3750.5L3816.78 1088.61ZM3958.17 1123.96L3896.31 1331.63C3883.06 1375.81 3843.29 1380.23 3816.78 1380.23H3728.41L3737.25 1344.88H3816.78C3847.71 1344.88 3856.55 1331.63 3860.97 1322.79L3922.82 1115.12C3927.24 1097.45 3918.41 1079.77 3900.73 1075.36L3825.62 1053.27L3834.45 1017.92L3909.57 1040.01C3949.33 1053.26 3971.43 1088.61 3958.17 1123.96ZM3631.2 1101.87L3560.51 1349.3L3595.86 1358.14L3666.55 1110.71L3631.2 1101.87ZM3556.09 991.406L3520.74 982.569L3423.54 1313.95L3458.88 1322.79L3556.09 991.406ZM3290.98 1274.19L3326.33 1283.03L3441.21 880.944L3405.86 872.107L3290.98 1274.19ZM3405.86 872.107L3290.98 1274.19L3326.33 1283.03L3441.21 880.944L3405.86 872.107ZM3520.74 978.151L3423.54 1313.95L3458.88 1322.79L3556.09 991.406L3520.74 978.151ZM3631.2 1101.87L3560.51 1349.3L3595.86 1358.14L3666.55 1110.71L3631.2 1101.87ZM3631.2 1101.87L3560.51 1349.3L3595.86 1358.14L3666.55 1110.71L3631.2 1101.87ZM3520.74 978.151L3423.54 1313.95L3458.88 1322.79L3556.09 991.406L3520.74 978.151ZM3405.86 872.107L3290.98 1274.19L3326.33 1283.03L3441.21 880.944L3405.86 872.107ZM3405.86 872.107L3290.98 1274.19L3326.33 1283.03L3441.21 880.944L3405.86 872.107ZM3520.74 978.151L3423.54 1313.95L3458.88 1322.79L3556.09 991.406L3520.74 978.151ZM3631.2 1101.87L3560.51 1349.3L3595.86 1358.14L3666.55 1110.71L3631.2 1101.87Z" fill="black"/>
        <path d="M3675.39 1605.57L3092.15 1428.84L3127.5 1300.7L3176.1 1287.44L3180.52 1296.28V1300.7V1305.12L3220.29 1318.37L3670.97 1450.93L3821.2 920.711L3781.43 907.456L3754.92 1004.66C3750.5 1026.75 3732.83 1044.43 3710.74 1057.68C3688.64 1066.52 3666.55 1070.94 3644.46 1066.52C3600.28 1053.26 3573.76 1009.08 3582.6 964.896C3551.67 942.803 3534 903.037 3547.25 863.271L3556.09 836.76L3330.75 770.483L3193.78 1252.1L3167.26 1168.14L3290.98 739.554C3286.56 704.206 3304.24 668.858 3330.75 646.766C3352.84 629.092 3383.77 620.255 3414.7 624.673C3432.37 602.581 3458.88 593.744 3485.4 589.326C3516.32 589.326 3551.67 598.163 3573.76 620.255C3609.11 606.999 3644.46 611.418 3675.39 629.092C3701.9 642.347 3723.99 668.858 3732.83 699.787C3772.6 708.624 3794.69 730.717 3807.94 770.483C3843.29 783.738 3865.38 805.831 3874.22 823.505C3887.48 850.015 3891.89 880.945 3883.06 911.874L3860.97 982.57L3931.66 1004.66C3989.1 1022.34 4020.03 1084.19 4006.77 1141.63L3944.92 1349.3C3931.66 1397.91 3887.48 1428.84 3825.62 1424.42H3732.83L3675.39 1605.57ZM3109.83 1420L3666.55 1587.9L3719.57 1406.74L3821.2 1411.16C3874.22 1411.16 3913.99 1389.07 3927.24 1344.88L3989.1 1137.22C4002.36 1084.19 3975.85 1031.17 3922.82 1017.92L3838.87 991.406L3865.38 907.456C3874.22 880.945 3869.8 850.015 3856.55 827.923C3847.71 814.668 3830.04 792.575 3794.69 783.738H3790.27V779.32C3781.43 743.972 3754.92 721.88 3719.57 713.043H3715.16V708.624C3706.32 682.113 3688.64 655.603 3662.13 642.347C3635.62 629.092 3600.28 624.673 3569.35 637.929H3564.93L3560.51 633.51C3538.42 611.418 3507.49 602.581 3480.98 602.581C3454.47 602.581 3432.37 615.836 3419.12 633.51L3414.7 642.347H3410.28C3383.77 637.929 3357.26 642.347 3335.17 660.021C3313.07 677.695 3299.82 708.624 3299.82 743.972L3176.1 1168.14L3189.36 1207.91L3317.49 757.228L3564.93 832.342L3556.09 867.689C3547.25 903.037 3560.51 938.385 3591.44 956.059L3595.86 960.477V964.896C3587.02 1004.66 3609.11 1044.43 3648.88 1057.68C3666.55 1062.1 3688.64 1062.1 3706.32 1053.26C3723.99 1044.43 3737.25 1026.75 3741.67 1009.08L3772.6 898.619L3838.87 916.292L3679.81 1468.6L3162.85 1313.95V1305.12L3136.34 1313.95L3109.83 1420ZM3653.3 1561.39L3136.34 1406.74L3158.43 1336.05L3675.39 1490.69L3653.3 1561.39ZM3154.01 1393.49L3644.46 1543.72L3657.72 1490.69L3167.26 1344.88L3154.01 1393.49ZM3825.62 1389.07L3728.41 1384.65L3741.67 1336.05H3825.62C3838.87 1336.05 3860.97 1331.63 3865.38 1318.37L3927.24 1110.7C3931.66 1097.45 3922.82 1079.78 3909.57 1079.78L3821.2 1057.68L3834.45 1013.5L3918.41 1040.01C3958.17 1053.26 3980.26 1093.03 3967.01 1132.8L3905.15 1340.47C3891.89 1380.23 3852.13 1389.07 3825.62 1389.07ZM3741.67 1375.81H3821.2C3843.29 1375.81 3883.06 1371.39 3891.89 1331.63L3953.75 1123.96C3962.59 1093.03 3944.92 1057.68 3913.99 1048.85L3843.29 1026.75L3838.87 1048.85L3909.57 1070.94C3931.66 1075.36 3940.5 1097.45 3936.08 1119.54L3874.22 1327.21C3869.8 1340.47 3860.96 1353.72 3825.62 1353.72H3750.5L3741.67 1375.81ZM3595.86 1371.39L3551.67 1358.14L3626.79 1097.45L3670.97 1110.7L3595.86 1371.39ZM3569.35 1349.3L3591.44 1353.72L3657.72 1115.12L3635.62 1110.7L3569.35 1349.3ZM3463.3 1331.63L3419.12 1318.37L3516.32 973.733L3560.51 986.988L3463.3 1331.63ZM3432.37 1309.54L3454.47 1313.95L3547.25 991.406L3525.16 986.988L3432.37 1309.54ZM3825.62 1318.37H3746.08L3812.36 1084.19L3896.31 1110.7L3834.45 1322.79H3830.04C3834.45 1318.37 3830.04 1318.37 3825.62 1318.37ZM3763.76 1305.12H3825.62C3830.04 1305.12 3830.04 1305.12 3830.04 1305.12L3883.06 1115.12L3821.2 1093.03L3763.76 1305.12ZM3330.75 1287.44L3286.56 1274.19L3405.86 863.271L3450.05 876.526L3330.75 1287.44ZM3299.82 1269.77L3321.91 1274.19L3432.37 885.363L3410.28 880.945L3299.82 1269.77ZM3136.34 1274.19L3154.01 1207.91L3171.68 1260.93L3136.34 1274.19ZM3670.97 1035.59C3666.55 1035.59 3662.13 1035.59 3657.72 1035.59C3631.2 1026.75 3613.53 1000.24 3622.37 969.314L3631.2 947.222L3622.37 942.803C3595.86 933.966 3578.18 907.456 3587.02 876.526L3604.69 819.086L3330.75 739.554V735.135C3330.75 713.043 3339.59 695.369 3357.26 682.113C3374.93 668.858 3397.03 664.44 3423.54 673.277L3432.37 677.695L3436.79 668.858C3450.05 646.766 3472.14 637.929 3489.81 637.929C3516.32 637.929 3547.25 651.184 3560.51 668.858L3564.93 677.695L3573.76 673.277C3600.28 660.021 3631.2 660.021 3657.72 673.277C3679.81 686.532 3697.48 708.624 3701.9 730.717V739.554H3710.74C3750.5 743.972 3768.18 766.064 3777.01 796.994V805.831H3785.85C3812.36 810.249 3834.45 823.505 3843.29 845.597C3852.13 858.852 3852.13 872.108 3852.13 885.363V894.2L3763.76 867.689L3723.99 1000.24C3719.57 1013.5 3710.74 1026.75 3697.48 1031.17C3688.64 1031.17 3679.81 1035.59 3670.97 1035.59ZM3339.59 726.298L3613.53 810.249L3591.44 880.945C3587.02 903.037 3595.86 925.129 3617.95 929.548L3640.04 938.385L3631.2 973.733C3626.79 995.825 3635.62 1017.92 3657.72 1022.34C3666.55 1026.75 3679.81 1022.34 3688.64 1017.92C3697.48 1013.5 3706.32 1004.66 3706.32 995.825L3746.08 850.015L3830.04 876.526C3830.04 867.689 3825.62 858.852 3821.2 850.015C3812.36 832.341 3794.69 823.505 3772.6 819.086L3759.34 814.668L3754.92 801.412C3750.5 770.483 3732.83 757.228 3697.48 752.809L3679.81 748.391L3675.39 730.717C3670.97 713.043 3657.72 690.95 3640.04 682.113C3617.95 668.858 3591.44 668.858 3564.93 682.113H3556.09L3542.84 664.44C3529.58 646.766 3507.49 637.929 3480.98 637.929C3467.72 637.929 3450.05 642.347 3436.79 664.44L3427.95 682.113L3410.28 677.695C3388.19 673.277 3370.51 673.277 3357.26 686.532C3348.42 695.369 3339.59 708.624 3339.59 726.298Z" fill="black"/>
        <path d="M3193.78 1230L3176.1 1296.28V1291.86L3136.34 1305.12L3145.17 1269.77L3149.59 1265.35L3162.85 1260.93H3167.26L3158.43 1230L3176.1 1168.15L3193.78 1230Z" fill="black"/>
        <path d="M3176.1 1318.37L3171.68 1305.12L3127.5 1318.37L3145.17 1265.35L3158.43 1260.93L3149.59 1238.84L3176.1 1154.89L3202.61 1238.84L3176.1 1318.37ZM3154.01 1269.77L3145.17 1296.28L3171.68 1287.44L3189.36 1230L3176.1 1190.24L3162.84 1230L3171.68 1260.93L3154.01 1269.77Z" fill="black"/>
        <path d="M3290.98 1274.19L3405.86 872.107L3441.21 880.944L3326.33 1283.03L3290.98 1274.19ZM3458.88 1322.79L3423.54 1313.95L3520.74 982.569L3556.09 991.406L3458.88 1322.79ZM3591.44 1362.56L3556.09 1353.72L3626.79 1106.29L3662.13 1115.12L3591.44 1362.56Z" fill="black"/>
        <path d="M3595.86 1371.4L3551.67 1358.14L3626.79 1097.45L3670.97 1110.71L3595.86 1371.4ZM3569.35 1349.3L3591.44 1353.72L3657.71 1115.12L3635.62 1110.71L3569.35 1349.3ZM3463.3 1331.63L3419.12 1318.37L3516.32 973.733L3560.51 986.988L3463.3 1331.63ZM3432.37 1309.54L3454.46 1313.95L3547.25 991.407L3525.16 986.988L3432.37 1309.54ZM3330.75 1287.44L3286.56 1274.19L3405.86 863.271L3450.05 876.526L3330.75 1287.44ZM3299.82 1269.77L3321.91 1274.19L3432.37 885.363L3410.28 880.945L3299.82 1269.77Z" fill="black"/>
        <path d="M4232.12 1238.84C4218.86 1238.84 4210.02 1230 4210.02 1216.75C4210.02 1203.49 4218.86 1194.66 4232.12 1194.66C4245.37 1194.66 4254.21 1203.49 4254.21 1216.75C4249.79 1230 4240.95 1238.84 4232.12 1238.84ZM3869.8 1163.73C3821.2 1181.4 3843.29 1243.26 3883.06 1252.1C3918.4 1260.93 3905.15 1389.07 4002.36 1503.95C4015.61 1521.62 4024.45 1543.71 4015.61 1570.23C3989.1 1689.52 3997.94 1817.66 4028.87 1932.54C4077.47 2109.28 4271.88 2197.65 4267.46 2228.58C4263.05 2259.51 4227.7 2241.83 4170.26 2241.83C4112.82 2241.83 4139.33 2325.78 4139.33 2325.78H4590.01C4598.85 2299.27 4598.85 2277.18 4598.85 2263.93C4598.85 2259.51 4603.27 2255.09 4607.69 2255.09C4775.59 2268.34 4806.52 2087.19 4735.82 2056.26C4651.87 2016.49 4629.78 2135.79 4629.78 2135.79C4647.45 1994.4 4302.81 1676.27 4373.51 1424.42C4377.93 1415.58 4386.76 1415.58 4391.18 1420C4550.25 1636.5 4687.22 1654.18 4687.22 1654.18C4687.22 1499.53 4457.46 1340.47 4457.46 1336.05C4700.47 1309.54 4775.59 1190.24 4775.59 1190.24C4682.8 1128.38 4519.32 1181.4 4426.53 1216.75C4422.11 1221.17 4413.27 1216.75 4408.85 1212.33C4316.07 1119.54 4077.47 1053.27 4033.28 1123.96C4002.36 1172.56 4068.63 1296.28 4095.14 1331.63C4121.65 1366.98 4103.98 1362.56 4090.72 1393.49C4086.31 1397.91 4081.89 1406.74 4077.47 1411.16C4055.38 1393.49 4024.45 1362.56 4002.36 1291.86C3971.43 1190.24 3918.4 1146.05 3869.8 1163.73Z" fill="black"/>
        <path d="M2111.25 1238.84C2097.99 1238.84 2089.16 1230 2089.16 1216.75C2089.16 1203.49 2097.99 1194.66 2111.25 1194.66C2124.51 1194.66 2133.34 1203.49 2133.34 1216.75C2128.92 1230 2120.09 1238.84 2111.25 1238.84ZM2473.56 1163.73C2424.96 1146.05 2367.52 1190.24 2336.59 1300.7C2318.92 1371.39 2283.57 1402.32 2261.48 1420C2257.06 1415.58 2252.64 1406.74 2248.22 1402.32C2230.55 1371.39 2217.29 1375.81 2243.8 1340.47C2270.31 1305.12 2336.59 1176.98 2305.66 1132.8C2261.48 1062.1 2022.88 1128.38 1930.09 1221.17C1925.67 1225.59 1916.84 1225.59 1912.42 1225.59C1819.63 1185.82 1656.15 1137.22 1563.36 1199.07C1563.36 1199.07 1642.89 1318.37 1881.49 1344.88C1877.07 1349.3 1651.73 1508.37 1651.73 1663.01C1656.15 1663.01 1788.7 1649.76 1947.77 1428.83C1952.18 1420 1965.44 1424.42 1965.44 1433.25C2036.14 1685.11 1691.5 2003.24 1709.17 2144.63C1709.17 2144.63 1687.08 2025.33 1603.13 2065.09C1536.85 2096.02 1563.36 2277.18 1731.26 2263.93C1735.68 2263.93 1740.1 2268.34 1740.1 2272.76C1735.68 2290.44 1735.68 2308.11 1748.94 2334.62H2199.62C2199.62 2334.62 2226.13 2250.67 2168.69 2250.67C2111.25 2250.67 2080.32 2268.34 2071.48 2237.42C2067.07 2206.49 2261.48 2118.12 2310.08 1941.38C2341.01 1826.5 2349.85 1693.94 2323.34 1579.06C2318.92 1556.97 2323.34 1530.46 2336.59 1512.79C2433.8 1397.91 2420.54 1269.77 2455.89 1260.93C2500.08 1243.26 2522.17 1176.98 2473.56 1163.73Z" fill="black"/>
        <path d="M1187.79 2696.94H1346.85C1461.73 2696.94 1523.59 2763.21 1523.59 2900.19C1523.59 2939.95 1519.17 2975.3 1505.92 3001.81C1492.66 3032.74 1470.57 3054.83 1439.64 3072.51L1545.68 3386.22H1439.64L1346.85 3094.6H1289.41V3390.64H1192.21V2696.94H1187.79ZM1284.99 3006.23H1342.43C1360.11 3006.23 1373.36 3001.81 1382.2 2997.39C1391.04 2992.97 1399.88 2984.14 1404.29 2975.3C1408.71 2966.46 1413.13 2953.21 1417.55 2939.95C1417.55 2926.7 1421.97 2913.44 1421.97 2895.77C1421.97 2878.09 1421.97 2864.84 1417.55 2851.58C1417.55 2838.33 1413.13 2825.07 1404.29 2816.23C1399.88 2807.4 1391.04 2798.56 1377.78 2794.14C1368.95 2789.72 1351.27 2785.31 1333.6 2785.31H1280.58V3006.23H1284.99Z" fill="black"/>
        <path d="M1762.19 2696.94H1846.14L2000.79 3390.64H1903.58L1872.65 3240.41H1735.68L1704.75 3390.64H1607.54L1762.19 2696.94ZM1801.96 2895.77L1753.35 3147.62H1850.56L1801.96 2895.77Z" fill="black"/>
        <path d="M2097.99 2696.94H2243.8C2274.73 2696.94 2301.24 2701.35 2323.34 2710.19C2345.43 2719.03 2363.1 2732.28 2376.36 2749.96C2389.61 2767.63 2402.87 2785.31 2407.29 2807.4C2411.71 2829.49 2416.12 2851.58 2416.12 2873.67V2895.77C2416.12 2913.44 2416.12 2931.11 2411.71 2944.37C2407.29 2957.63 2402.87 2966.46 2398.45 2979.72C2394.03 2988.55 2385.2 2997.39 2376.36 3006.23C2367.52 3015.07 2358.68 3019.48 2345.43 3028.32C2367.52 3037.16 2385.2 3054.83 2398.45 3076.92C2407.29 3099.02 2416.12 3125.53 2416.12 3165.29V3205.06C2416.12 3266.92 2402.87 3311.1 2371.94 3346.45C2341.01 3377.38 2296.83 3395.05 2230.55 3395.05H2097.99V2696.94ZM2195.2 2979.72H2239.39C2270.31 2979.72 2292.41 2970.88 2305.66 2953.21C2318.92 2935.53 2323.34 2913.44 2323.34 2882.51C2323.34 2851.58 2318.92 2829.49 2305.66 2811.82C2292.41 2794.14 2270.31 2789.72 2234.97 2789.72H2195.2V2979.72ZM2195.2 3289.01H2239.39C2261.48 3289.01 2274.73 3284.59 2287.99 3280.17C2301.24 3275.76 2310.08 3266.92 2314.5 3253.66C2318.92 3244.83 2323.34 3231.57 2323.34 3218.32C2323.34 3205.06 2323.34 3187.39 2323.34 3169.71C2323.34 3152.04 2323.34 3138.78 2318.92 3125.53C2318.92 3112.27 2314.5 3103.44 2305.66 3094.6C2301.24 3085.76 2292.41 3081.34 2279.15 3072.51C2270.31 3068.09 2252.64 3063.67 2234.97 3063.67H2190.78V3289.01H2195.2Z" fill="black"/>
        <path d="M2557.51 2696.94H2703.32C2734.25 2696.94 2760.76 2701.35 2782.86 2710.19C2804.95 2719.03 2822.62 2732.28 2835.88 2749.96C2849.13 2767.63 2862.39 2785.31 2866.81 2807.4C2871.23 2829.49 2875.64 2851.58 2875.64 2873.67V2895.77C2875.64 2913.44 2875.64 2931.11 2871.23 2944.37C2866.81 2957.63 2862.39 2966.46 2857.97 2979.72C2853.55 2988.55 2844.72 2997.39 2835.88 3006.23C2827.04 3015.07 2818.2 3019.48 2804.95 3028.32C2827.04 3037.16 2844.72 3054.83 2857.97 3076.92C2866.81 3099.02 2875.64 3125.53 2875.64 3165.29V3205.06C2875.64 3266.92 2862.39 3311.1 2831.46 3346.45C2800.53 3377.38 2756.35 3395.05 2690.07 3395.05H2553.1V2696.94H2557.51ZM2659.14 2979.72H2703.32C2734.25 2979.72 2756.35 2970.88 2769.6 2953.21C2782.86 2935.53 2787.28 2913.44 2787.28 2882.51C2787.28 2851.58 2782.86 2829.49 2769.6 2811.82C2756.35 2794.14 2734.25 2789.72 2698.91 2789.72H2659.14V2979.72ZM2659.14 3289.01H2703.32C2725.42 3289.01 2738.67 3284.59 2751.93 3280.17C2765.18 3275.76 2774.02 3266.92 2778.44 3253.66C2782.86 3244.83 2787.28 3231.57 2787.28 3218.32C2787.28 3205.06 2787.28 3187.39 2787.28 3169.71C2787.28 3152.04 2787.28 3138.78 2782.86 3125.53C2782.86 3112.27 2778.44 3103.44 2769.6 3094.6C2765.18 3085.76 2756.35 3081.34 2743.09 3072.51C2734.25 3068.09 2716.58 3063.67 2698.91 3063.67H2654.72V3289.01H2659.14Z" fill="black"/>
        <path d="M3025.87 2696.94H3123.08V3390.64H3025.87V2696.94Z" fill="black"/>
        <path d="M3335.17 2789.72H3220.29V2696.94H3547.25V2789.72H3432.37V3386.22H3335.17V2789.72Z" fill="black"/>
        <path d="M3697.48 2696.94H3781.43L3936.08 3390.64H3838.87L3807.94 3240.41H3670.97L3644.46 3390.64H3547.25L3697.48 2696.94ZM3741.66 2895.77L3688.64 3147.62H3785.85L3741.66 2895.77Z" fill="black"/>
        <path d="M4028.87 2696.94H4126.07L4276.3 3112.27V2696.94H4373.51V3390.64H4280.72L4130.49 2970.88V3386.22H4033.28V2696.94H4028.87Z" fill="black"/>
        <path d="M4519.32 2696.94H4616.52V3390.64H4519.32V2696.94Z" fill="black"/>
        <path d="M4872.79 2696.94H4956.74L5111.39 3390.64H5014.18L4983.25 3240.41H4846.28L4815.35 3390.64H4718.15L4872.79 2696.94ZM4916.98 2895.77L4868.37 3147.62H4965.58L4916.98 2895.77Z" fill="black"/>
        <path d="M1227.55 3633.65H1338.02C1408.71 3633.65 1448.48 3664.58 1448.48 3713.18C1448.48 3757.37 1421.97 3779.46 1386.62 3788.3C1426.39 3797.14 1457.32 3819.23 1457.32 3867.83C1457.32 3920.85 1421.97 3956.2 1346.85 3956.2H1227.55V3633.65ZM1333.6 3775.04C1386.62 3775.04 1413.13 3757.37 1413.13 3717.6C1413.13 3677.84 1386.62 3660.16 1333.6 3660.16H1258.48V3775.04H1333.6ZM1346.85 3929.69C1399.88 3929.69 1426.39 3907.6 1426.39 3867.83C1426.39 3823.65 1391.04 3805.97 1338.02 3805.97H1258.48V3929.69H1346.85Z" fill="black"/>
        <path d="M1585.45 3633.65H1775.45V3660.16H1611.96V3770.62H1731.26V3797.14H1611.96V3925.27H1788.7V3956.2H1585.45V3633.65Z" fill="black"/>
        <path d="M1912.42 3633.65H2102.41V3660.16H1938.93V3770.62H2058.23V3797.14H1938.93V3925.27H2111.25V3956.2H1908V3633.65H1912.42Z" fill="black"/>
        <path d="M2234.97 3633.65H2341.01C2411.71 3633.65 2451.47 3664.58 2451.47 3722.02C2451.47 3775.04 2420.54 3801.55 2376.36 3810.39L2455.89 3956.2H2420.54L2341.01 3810.39H2261.48V3956.2H2230.55V3633.65H2234.97ZM2341.01 3783.88C2394.03 3783.88 2424.96 3770.62 2424.96 3722.02C2424.96 3677.84 2394.03 3660.16 2341.01 3660.16H2265.9V3783.88H2341.01Z" fill="black"/>
        <path d="M2743.09 3633.65H2933.08V3660.16H2774.02V3770.62H2888.9V3797.14H2774.02V3956.2H2743.09V3633.65Z" fill="black"/>
        <path d="M3052.38 3633.65H3242.38V3660.16H3078.89V3770.62H3202.61V3797.14H3083.31V3925.27H3255.63V3956.2H3052.38V3633.65Z" fill="black"/>
        <path d="M3352.84 3876.67L3379.35 3867.83C3392.61 3912.02 3427.95 3934.11 3472.14 3934.11C3520.74 3934.11 3551.67 3912.02 3551.67 3876.67C3551.67 3841.32 3534 3828.06 3467.72 3805.97C3397.02 3783.88 3361.68 3766.21 3361.68 3713.18C3361.68 3669 3401.44 3629.23 3463.3 3629.23C3525.16 3629.23 3560.51 3660.16 3573.76 3704.35L3547.25 3717.6C3529.58 3677.84 3503.07 3660.16 3463.3 3660.16C3419.12 3660.16 3392.61 3682.26 3392.61 3713.18C3392.61 3748.53 3414.7 3761.79 3480.98 3783.88C3547.25 3805.97 3582.6 3828.06 3582.6 3881.09C3582.6 3934.11 3534 3969.46 3472.14 3969.46C3410.28 3960.62 3366.1 3929.69 3352.84 3876.67Z" fill="black"/>
        <path d="M3768.18 3660.16H3662.13V3633.65H3900.73V3660.16H3794.69V3956.2H3763.76V3660.16H3768.18Z" fill="black"/>
        <path d="M4024.45 3633.65H4055.38V3956.2H4024.45V3633.65Z" fill="black"/>
        <path d="M4179.09 3633.65H4210.02L4307.23 3912.02L4404.44 3629.23H4435.37L4324.9 3956.2H4293.97L4179.09 3633.65Z" fill="black"/>
        <path d="M4616.52 3633.65H4651.87L4766.75 3956.2H4735.82L4700.47 3858.99H4567.92L4532.57 3956.2H4501.64L4616.52 3633.65ZM4687.22 3828.06L4634.2 3669L4581.17 3828.06H4687.22Z" fill="black"/>
        <path d="M4881.63 3633.65H4912.56V3925.27H5071.63V3956.2H4881.63V3633.65Z" fill="black"/>
        <path d="M6162.99 4000.39H6127.64H5721.14V3501.1H5469.29C5482.54 3483.42 5491.38 3470.17 5500.22 3452.49L5760.91 3333.2L5765.33 3315.52C5915.55 2860.42 5756.49 2551.13 5601.84 2369.97C5433.94 2175.56 5235.11 2091.61 5226.27 2091.61L5155.58 2060.68L5190.93 2272.76C5129.07 2233 5084.88 2210.9 5080.46 2206.49L5040.7 2286.02C5040.7 2286.02 5089.3 2312.53 5155.58 2356.71L4881.63 2409.74L5005.35 2467.18C5027.44 2476.01 5500.22 2696.94 5354.41 3205.06L5349.99 3222.73L5442.78 3395.05C5416.27 3439.24 5385.34 3479.01 5349.99 3523.19L5296.97 3593.89H5637.19V4132.94H684.084V3589.47H1024.31L966.866 3514.35C931.519 3470.17 900.589 3430.4 874.078 3386.22L966.866 3213.9L962.448 3196.22C816.638 2688.1 1289.41 2467.18 1311.51 2458.34L1435.22 2400.9L1161.28 2347.88C1227.56 2303.69 1276.16 2281.6 1276.16 2277.18L1258.49 2246.25L1276.16 2286.02L1236.39 2206.49C1231.97 2210.9 1187.79 2233 1125.93 2272.76L1161.28 2060.68L1090.58 2091.61C1081.75 2096.02 882.915 2179.97 715.013 2369.97C560.367 2551.13 401.302 2856 551.53 3315.52L555.949 3333.2L816.638 3452.49C825.475 3470.17 834.312 3483.42 847.568 3501.1H595.715V4000.39H206.889H153.867V4530.6H993.377V4221.31H5323.48V4530.6H6162.99V4000.39ZM5301.39 2582.06C5288.13 2568.8 5279.29 2555.55 5266.04 2542.29L5354.41 2520.2C5372.08 2537.87 5385.34 2555.55 5403.01 2573.22L5301.39 2582.06C5305.81 2582.06 5305.81 2582.06 5301.39 2582.06ZM5464.87 2511.36C5451.61 2493.69 5433.94 2480.43 5420.69 2462.76L5425.1 2321.37C5447.2 2339.04 5473.71 2361.13 5495.8 2387.64L5464.87 2511.36ZM5464.87 2643.91C5473.71 2657.17 5482.54 2674.84 5491.38 2674.84H5385.34C5380.92 2674.84 5376.5 2661.59 5367.66 2652.75L5464.87 2643.91ZM5531.15 2763.21C5535.57 2763.21 5539.98 2798.56 5544.4 2811.82L5425.1 2776.47C5425.1 2772.05 5425.1 2767.63 5420.69 2767.63H5531.15V2763.21ZM5729.98 3085.76L5641.61 3138.78C5646.03 3112.27 5650.45 3081.34 5654.86 3054.83L5738.82 2984.14C5738.82 3015.07 5734.4 3050.41 5729.98 3085.76ZM5734.4 2873.67L5654.86 2939.95C5654.86 2922.28 5650.45 2900.19 5646.03 2882.51L5725.56 2811.82C5729.98 2833.91 5734.4 2856 5734.4 2873.67ZM5628.35 2789.72C5623.94 2767.63 5615.1 2749.96 5606.26 2732.28L5672.54 2630.66C5685.79 2661.59 5699.05 2692.52 5707.89 2723.45L5628.35 2789.72ZM5566.5 2913.44C5570.91 2931.12 5570.91 2953.21 5570.91 2970.88L5460.45 2913.44C5460.45 2904.6 5456.03 2891.35 5456.03 2882.51L5566.5 2913.44ZM5469.29 3015.07L5566.5 3068.09C5562.08 3094.6 5557.66 3125.53 5548.82 3152.04L5464.87 3072.51C5469.29 3050.41 5469.29 3032.74 5469.29 3015.07ZM5575.33 3324.36C5584.17 3302.27 5593.01 3284.59 5601.84 3262.5L5707.89 3200.64C5703.47 3222.73 5694.63 3249.24 5690.21 3271.34L5575.33 3324.36ZM5619.52 2542.29L5557.66 2643.91C5548.82 2630.66 5539.98 2617.4 5531.15 2604.15L5566.5 2471.59C5588.59 2489.27 5606.26 2515.78 5619.52 2542.29ZM5266.04 2206.49C5288.13 2219.74 5314.64 2237.42 5345.57 2255.09L5341.15 2383.22C5323.48 2369.97 5305.81 2356.71 5292.55 2343.46L5266.04 2206.49ZM5252.78 2422.99C5261.62 2431.83 5274.88 2440.66 5283.71 2449.5L5190.93 2476.01C5177.67 2462.76 5160 2453.92 5146.74 2445.08L5252.78 2422.99ZM5442.78 3209.48C5447.2 3196.22 5447.2 3187.39 5451.62 3174.13L5522.31 3240.41C5513.47 3262.5 5504.64 3280.17 5495.8 3302.27L5442.78 3209.48ZM816.638 2387.64C838.731 2365.55 865.242 2343.46 887.334 2321.37L891.752 2462.76C878.497 2476.01 860.823 2493.69 847.568 2511.36L816.638 2387.64ZM1011.05 2586.47L913.845 2573.22C927.1 2555.55 944.774 2537.87 962.448 2520.2L1050.82 2542.29C1037.56 2555.55 1024.31 2568.8 1011.05 2586.47C1011.05 2582.06 1011.05 2582.06 1011.05 2586.47ZM851.986 2643.91L949.192 2652.75C944.774 2661.59 935.937 2674.84 931.519 2674.84H825.475C838.731 2674.84 843.149 2657.17 851.986 2643.91ZM891.752 2763.21C891.752 2763.21 891.752 2776.47 887.334 2776.47L772.454 2807.4C776.872 2794.14 781.291 2763.21 785.709 2763.21H891.752ZM847.568 3015.07C847.568 3032.74 847.568 3050.41 851.986 3072.51L768.035 3152.04C759.198 3125.53 754.78 3094.6 750.361 3068.09L847.568 3015.07ZM856.405 2913.44L745.943 2970.88C745.943 2953.21 745.943 2931.12 750.361 2913.44L860.823 2882.51C860.823 2891.35 856.405 2900.19 856.405 2913.44ZM688.503 2789.72L613.389 2719.03C622.226 2688.1 635.481 2657.17 648.736 2626.24L715.013 2727.87C706.177 2749.96 697.34 2767.63 688.503 2789.72ZM666.41 2882.51C661.992 2900.19 661.992 2922.28 657.573 2939.95L578.041 2873.67C578.041 2851.58 582.459 2833.91 586.878 2811.82L666.41 2882.51ZM578.041 2984.14L661.992 3054.83C666.41 3081.34 670.829 3112.27 675.247 3138.78L586.878 3085.76C582.459 3050.41 578.041 3015.07 578.041 2984.14ZM794.546 3240.41L865.242 3174.13C869.66 3187.39 869.66 3196.22 874.078 3209.48L825.475 3302.27C812.22 3280.17 803.383 3258.08 794.546 3240.41ZM1170.12 2445.08C1156.86 2453.92 1143.6 2462.76 1125.93 2476.01L1033.14 2449.5C1041.98 2440.66 1055.24 2431.83 1064.07 2422.99L1170.12 2445.08ZM1028.72 2343.46C1011.05 2356.71 993.377 2369.97 980.122 2383.22L975.703 2255.09C1006.63 2233 1033.14 2219.74 1055.24 2206.49L1028.72 2343.46ZM750.361 2462.76L785.709 2595.31C776.872 2608.57 768.035 2621.82 759.198 2635.08L697.34 2542.29C710.595 2515.78 728.269 2489.27 750.361 2462.76ZM626.644 3271.34C617.807 3249.24 613.389 3222.73 608.97 3200.64L715.013 3262.5C723.85 3284.59 732.687 3302.27 741.524 3324.36L626.644 3271.34ZM242.237 4088.75H595.715V4177.12H242.237V4088.75ZM242.237 4265.49H626.644L692.921 4309.68H242.237V4265.49ZM242.237 4442.23V4398.05H785.709L847.568 4442.23H242.237ZM993.377 4468.74L741.524 4221.31H993.377V4468.74ZM5323.48 4221.31H5570.91L5323.48 4473.16V4221.31ZM6074.62 4442.23H5469.29L5531.15 4398.05H6074.62V4442.23ZM6074.62 4309.68H5623.94L5690.21 4265.49H6074.62V4309.68ZM6074.62 4177.12H5721.14V4088.75H6074.62V4177.12Z" fill="black"/>
        <path d="M971.284 4177.12H684.084L971.284 4464.32V4177.12Z" fill="black" stroke="black" stroke-width="44.1847"/>
        <path d="M5345.44 4177.12H5632.64L5345.44 4464.32V4177.12Z" fill="black" stroke="black" stroke-width="44.1847"/>
        <path d="M3322.49 2333.51H3210.77V2317.3L3256.36 2271C3264.84 2262.45 3271.95 2254.83 3277.71 2248.14C3283.54 2241.46 3287.97 2234.89 3291 2228.43C3294.03 2221.9 3295.55 2214.75 3295.55 2206.98C3295.55 2197.34 3292.67 2189.99 3286.92 2184.94C3281.24 2179.8 3273.74 2177.24 3264.41 2177.24C3256.25 2177.24 3249.02 2178.64 3242.72 2181.44C3236.42 2184.24 3229.97 2188.2 3223.36 2193.33L3212.98 2180.27C3217.49 2176.46 3222.39 2173.08 3227.68 2170.12C3233.04 2167.17 3238.75 2164.84 3244.82 2163.13C3250.96 2161.42 3257.49 2160.56 3264.41 2160.56C3274.91 2160.56 3283.96 2162.39 3291.58 2166.04C3299.2 2169.7 3305.07 2174.91 3309.19 2181.67C3313.39 2188.43 3315.49 2196.48 3315.49 2205.81C3315.49 2214.83 3313.7 2223.23 3310.13 2231C3306.55 2238.7 3301.54 2246.36 3295.08 2253.97C3288.63 2261.52 3281.09 2269.52 3272.46 2278L3235.37 2314.97V2315.78H3322.49V2333.51ZM3460.1 2248.03C3460.1 2261.87 3459.05 2274.23 3456.95 2285.11C3454.85 2296 3451.55 2305.21 3447.04 2312.75C3442.53 2320.29 3436.7 2326.05 3429.55 2330.01C3422.39 2333.9 3413.8 2335.84 3403.77 2335.84C3391.1 2335.84 3380.6 2332.38 3372.29 2325.46C3364.04 2318.54 3357.86 2308.55 3353.74 2295.49C3349.7 2282.35 3347.68 2266.53 3347.68 2248.03C3347.68 2229.83 3349.51 2214.21 3353.16 2201.15C3356.89 2188.01 3362.88 2177.94 3371.12 2170.94C3379.36 2163.87 3390.24 2160.33 3403.77 2160.33C3416.6 2160.33 3427.17 2163.83 3435.49 2170.82C3443.81 2177.74 3449.99 2187.77 3454.04 2200.91C3458.08 2213.97 3460.1 2229.68 3460.1 2248.03ZM3367.15 2248.03C3367.15 2263.89 3368.36 2277.1 3370.77 2287.68C3373.18 2298.25 3377.07 2306.18 3382.43 2311.47C3387.87 2316.68 3394.99 2319.28 3403.77 2319.28C3412.56 2319.28 3419.63 2316.68 3425 2311.47C3430.44 2306.26 3434.37 2298.37 3436.78 2287.79C3439.26 2277.22 3440.51 2263.97 3440.51 2248.03C3440.51 2232.4 3439.3 2219.34 3436.89 2208.84C3434.48 2198.27 3430.6 2190.34 3425.23 2185.05C3419.87 2179.69 3412.71 2177.01 3403.77 2177.01C3394.83 2177.01 3387.68 2179.69 3382.31 2185.05C3376.95 2190.34 3373.06 2198.27 3370.65 2208.84C3368.32 2219.34 3367.15 2232.4 3367.15 2248.03ZM3595.85 2333.51H3484.12V2317.3L3529.72 2271C3538.2 2262.45 3545.31 2254.83 3551.06 2248.14C3556.9 2241.46 3561.33 2234.89 3564.36 2228.43C3567.39 2221.9 3568.91 2214.75 3568.91 2206.98C3568.91 2197.34 3566.03 2189.99 3560.28 2184.94C3554.6 2179.8 3547.1 2177.24 3537.77 2177.24C3529.61 2177.24 3522.38 2178.64 3516.08 2181.44C3509.78 2184.24 3503.33 2188.2 3496.72 2193.33L3486.34 2180.27C3490.85 2176.46 3495.75 2173.08 3501.03 2170.12C3506.4 2167.17 3512.11 2164.84 3518.18 2163.13C3524.32 2161.42 3530.85 2160.56 3537.77 2160.56C3548.27 2160.56 3557.32 2162.39 3564.94 2166.04C3572.56 2169.7 3578.43 2174.91 3582.55 2181.67C3586.75 2188.43 3588.85 2196.48 3588.85 2205.81C3588.85 2214.83 3587.06 2223.23 3583.48 2231C3579.91 2238.7 3574.89 2246.36 3568.44 2253.97C3561.99 2261.52 3554.45 2269.52 3545.82 2278L3508.73 2314.97V2315.78H3595.85V2333.51ZM3726.23 2202.78C3726.23 2210.4 3724.75 2217.01 3721.8 2222.6C3718.84 2228.2 3714.72 2232.79 3709.44 2236.37C3704.15 2239.86 3697.93 2242.31 3690.78 2243.71V2244.65C3704.3 2246.36 3714.45 2250.71 3721.21 2257.71C3728.06 2264.7 3731.48 2273.88 3731.48 2285.23C3731.48 2295.1 3729.14 2303.85 3724.48 2311.47C3719.89 2319.09 3712.82 2325.07 3703.25 2329.43C3693.77 2333.7 3681.6 2335.84 3666.75 2335.84C3657.73 2335.84 3649.38 2335.1 3641.68 2333.63C3634.06 2332.23 3626.75 2329.86 3619.75 2326.51V2308.32C3626.83 2311.82 3634.53 2314.58 3642.84 2316.6C3651.16 2318.54 3659.21 2319.52 3666.99 2319.52C3682.53 2319.52 3693.77 2316.44 3700.69 2310.3C3707.61 2304.08 3711.07 2295.61 3711.07 2284.88C3711.07 2277.49 3709.12 2271.55 3705.24 2267.04C3701.43 2262.45 3695.91 2259.11 3688.68 2257.01C3681.52 2254.83 3672.89 2253.74 3662.79 2253.74H3645.76V2237.18H3662.9C3672.16 2237.18 3680.01 2235.82 3686.46 2233.1C3692.91 2230.38 3697.81 2226.57 3701.15 2221.67C3704.58 2216.7 3706.29 2210.83 3706.29 2204.06C3706.29 2195.43 3703.41 2188.78 3697.66 2184.12C3691.9 2179.38 3684.09 2177.01 3674.22 2177.01C3668.15 2177.01 3662.63 2177.63 3657.66 2178.87C3652.68 2180.12 3648.01 2181.83 3643.66 2184C3639.31 2186.18 3634.95 2188.71 3630.6 2191.58L3620.8 2178.29C3627.02 2173.47 3634.6 2169.31 3643.54 2165.81C3652.49 2162.31 3662.63 2160.56 3673.98 2160.56C3691.4 2160.56 3704.46 2164.53 3713.17 2172.46C3721.87 2180.39 3726.23 2190.49 3726.23 2202.78Z" fill="black"/>
    </g>
    <defs>
        <clipPath id="clip0_101_50">
            <rect width="6010" height="4331" fill="white" transform="translate(153 200.5)"/>
        </clipPath>
    </defs>
</svg>
