<svg width="36" height="36" viewBox="0 0 36 36" fill="none" xmlns="http://www.w3.org/2000/svg">
<g clip-path="url(#clip0_13_2160)">
<path d="M0 23.9502C0.233862 23.4696 0.40785 22.9454 0.714266 22.5162C1.47432 21.4515 2.55981 20.949 3.85943 20.9357C5.33868 20.9209 6.81864 20.9032 8.29648 20.9462C8.89311 20.9638 9.48481 21.1386 10.1293 21.2506C10.1293 21.1097 10.1216 20.9039 10.1307 20.6989C10.2237 18.6293 11.872 16.9987 13.9416 16.9811C16.6176 16.9585 19.295 16.9599 21.9711 16.9804C24.0575 16.9966 25.7171 18.6272 25.7918 20.7214C25.8277 21.7298 25.803 22.741 25.8059 23.7508C25.8059 23.8769 25.8059 24.0024 25.8059 24.1123C28.0099 23.4837 30.2337 23.7621 32.4315 23.8142C34.4214 23.8614 35.9683 25.5815 35.988 27.5786C36.012 30.0329 35.993 32.4873 35.9972 34.9416C35.9979 35.4285 35.7619 35.7604 35.3618 35.9993H0.563524C0.375448 35.8112 0.188076 35.6237 0 35.4356C0 31.6071 0 27.778 0 23.9495V23.9502ZM23.6772 33.9417C23.6828 33.8233 23.6905 33.7416 23.6905 33.6598C23.6905 29.4459 23.6948 25.2313 23.6891 21.0174C23.6877 19.7955 22.958 19.0894 21.7231 19.0887C19.2352 19.0873 16.7479 19.088 14.26 19.0887C12.935 19.0887 12.2334 19.7821 12.2327 21.0984C12.2306 25.2539 12.2327 29.4093 12.2327 33.5647V33.9417H23.6772ZM10.1012 33.9452C10.1089 33.8515 10.1174 33.7944 10.1174 33.7373C10.1181 30.8038 10.1279 27.8703 10.1131 24.9375C10.1075 23.7635 9.3552 23.0504 8.17109 23.0461C6.78694 23.0405 5.40278 23.0419 4.01863 23.0461C2.76127 23.049 2.04277 23.7769 2.04207 25.0446C2.04066 27.8844 2.04207 30.7235 2.04207 33.5633C2.04207 33.6873 2.04207 33.812 2.04207 33.9466H10.1012V33.9452ZM33.8812 33.9396C33.8812 31.8911 33.8819 29.8842 33.8812 27.878C33.8812 26.592 33.1683 25.881 31.8729 25.8775C30.524 25.874 29.1743 25.8747 27.8254 25.8775C26.5138 25.8803 25.808 26.5885 25.8059 27.9048C25.803 29.7947 25.8052 31.6839 25.8059 33.5739C25.8059 33.6965 25.8178 33.8191 25.8235 33.9396H33.8812Z" fill="white"/>
<path d="M12.8497 13.493C13.0187 12.4994 13.1131 11.534 13.359 10.6095C13.5971 9.71529 13.4491 9.07686 12.6912 8.4934C12.0079 7.96701 11.4374 7.29546 10.8118 6.69227C10.4681 6.36108 10.2645 5.9876 10.4174 5.49716C10.5752 4.99191 10.9668 4.79672 11.4514 4.72766C12.6236 4.55924 13.7964 4.39717 14.965 4.21184C15.1066 4.18929 15.2841 4.06386 15.3489 3.93702C15.904 2.85184 16.4358 1.75538 16.9754 0.662438C17.1797 0.249504 17.5023 -0.00417596 17.9714 5.20381e-05C18.4398 0.00428004 18.7575 0.264302 18.9583 0.677236C18.9942 0.751226 19.033 0.823102 19.0696 0.896388C19.5669 1.90547 20.0691 2.91244 20.5573 3.92575C20.6496 4.11671 20.7616 4.19916 20.9757 4.22805C22.1492 4.38449 23.32 4.55995 24.4914 4.72977C24.9633 4.79813 25.3437 4.99473 25.5022 5.48095C25.6607 5.96787 25.4677 6.34628 25.1232 6.68029C24.2801 7.497 23.4467 8.32287 22.5972 9.13253C22.4233 9.29883 22.3746 9.45809 22.4162 9.68851C22.6233 10.8308 22.817 11.9744 23.0164 13.1181C23.0995 13.5966 23.0579 14.0384 22.6275 14.3499C22.2014 14.6585 21.7731 14.5803 21.3385 14.3485C20.3143 13.8031 19.2816 13.2739 18.2616 12.7214C18.0369 12.5995 17.8693 12.6094 17.6495 12.7277C16.5971 13.2943 15.5384 13.8503 14.4755 14.3971C13.8845 14.7015 13.2667 14.5289 12.9955 13.9905C12.9138 13.8284 12.8898 13.6375 12.8483 13.493H12.8497ZM20.6003 11.565C20.4974 10.9576 20.453 10.4263 20.3122 9.92246C20.0642 9.03388 20.2156 8.31089 20.9919 7.75209C21.2089 7.59636 21.3765 7.37439 21.5759 7.19188C21.7865 6.9988 22.0084 6.817 22.2246 6.63026C21.5604 6.44634 20.9722 6.31386 20.3784 6.28074C19.5803 6.23635 19.078 5.88261 18.7878 5.13284C18.5709 4.57334 18.2609 4.04907 17.9608 3.44446C17.6009 4.1745 17.2719 4.83195 16.9521 5.49363C16.7528 5.90516 16.445 6.14756 15.9822 6.20887C15.2411 6.30682 14.5036 6.42591 13.7711 6.53583C14.1458 6.93186 14.4656 7.36664 14.8763 7.68303C15.6701 8.29468 15.8857 9.02471 15.6046 9.9732C15.4588 10.4636 15.4264 10.9886 15.3327 11.5615C16.0301 11.1958 16.6605 10.8836 17.2719 10.5397C17.7495 10.2713 18.1933 10.279 18.6674 10.5461C19.2788 10.89 19.9078 11.2014 20.601 11.565H20.6003Z" fill="white"/>
</g>
<defs>
<clipPath id="clip0_13_2160">
<rect width="36" height="36" fill="white"/>
</clipPath>
</defs>
</svg>
