<svg width="413" height="53" viewBox="0 0 413 53" fill="none" xmlns="http://www.w3.org/2000/svg">
<path d="M266.219 36.0731H276.928L271.549 23.8715L266.219 36.0731ZM277.788 38.0318H265.343L263.141 42.9882H260.879L270.483 21.5664H272.648L282.257 42.9882H279.996L277.788 38.0318Z" fill="white"/>
<path d="M303.282 40.97H310.262C312.713 40.97 315.927 40.207 315.927 37.1823C315.927 34.1576 312.984 33.0159 310.413 33.0159H303.282V40.97ZM303.282 31.0572H310.413C312.984 31.0572 315.283 30.0129 315.283 27.4102C315.283 24.537 312.892 23.5576 310.262 23.5576H303.282V31.0572ZM310.262 21.5664C314.05 21.5664 317.421 23.2221 317.421 27.4427C317.419 28.4605 317.091 29.4511 316.486 30.2691C315.88 31.0871 315.028 31.6894 314.055 31.9878C315.201 32.2951 316.214 32.9705 316.939 33.9101C317.663 34.8497 318.059 36.0013 318.064 37.1877C318.064 41.6247 314.12 42.972 310.262 42.972H301.145V21.5664H310.262Z" fill="white"/>
<path d="M340.131 40.97H347.111C349.557 40.97 352.771 40.207 352.771 37.1823C352.771 34.1576 349.833 33.0159 347.263 33.0159H340.131V40.97ZM340.131 31.0572H347.263C349.833 31.0572 352.132 30.0129 352.132 27.4102C352.132 24.537 349.746 23.5576 347.117 23.5576H340.131V31.0572ZM347.111 21.5664C350.899 21.5664 354.27 23.2221 354.27 27.4427C354.268 28.4605 353.941 29.4511 353.335 30.2691C352.729 31.0871 351.877 31.6894 350.904 31.9878C352.05 32.2951 353.063 32.9705 353.788 33.9101C354.512 34.8497 354.908 36.0013 354.914 37.1877C354.914 41.6247 350.964 42.972 347.111 42.972H337.988V21.5664H347.111Z" fill="white"/>
<path d="M376.979 21.5664H374.836V42.9882H376.979V21.5664Z" fill="white"/>
<path d="M395.738 21.5664V23.5847H403.297V42.9882H405.44V23.5847H412.999V21.5664H395.738Z" fill="white"/>
<path d="M228.342 36.8955V34.8881H237.065C241.177 34.4444 242.952 31.5441 242.952 28.3625C242.919 24.748 240.625 21.5664 235.853 21.5664H226.227V42.9882H228.391V36.8955H228.342ZM228.342 23.5847H235.809C239.115 23.5847 240.766 25.6679 240.766 28.3625C240.766 31.0572 239.164 33.07 235.712 33.07H228.369L228.342 23.5847Z" fill="white"/>
<path d="M238.254 36.8955H235.527L241.009 42.9882H243.795L238.254 36.8955Z" fill="white"/>
<path d="M52.3382 42.1933H36.9766V20.7715H52.0622V22.7898H39.1193V30.4733H51.4832V32.4645H39.1193V40.1751H52.3382V42.1933Z" fill="white"/>
<path d="M77.4028 22.7898H69.8438V20.7715H87.1046V22.7898H79.5455V42.1933H77.4028V22.7898Z" fill="white"/>
<path d="M152.322 40.5703C158.166 40.5703 160.98 36.1334 161.012 31.5449C161.012 26.74 158.166 22.4546 152.322 22.4275C146.565 22.4275 143.54 26.4965 143.6 31.5449C143.659 36.2253 146.478 40.5703 152.322 40.5703ZM163.144 31.5449C163.112 37.1452 159.562 42.594 152.322 42.594C145.082 42.594 141.457 37.1452 141.457 31.5124C141.457 25.4847 145.375 20.4038 152.322 20.4038C159.573 20.4363 163.187 25.8147 163.144 31.5449Z" fill="white"/>
<path d="M108.038 34.0927H116.696C120.797 33.649 122.588 30.7487 122.556 27.5671C122.556 23.9526 120.229 20.771 115.457 20.771H105.863V42.1928H108.028V34.2983H108.06L108.038 34.0927ZM108.006 22.7893H115.473C118.779 22.7893 120.429 24.8725 120.429 27.5671C120.429 30.2618 118.806 32.28 115.349 32.28H108.006V22.7893Z" fill="white"/>
<path d="M117.891 36.1011H115.164L120.645 42.1938H123.432L117.891 36.1011Z" fill="white"/>
<path d="M2.16437 36.1001V34.0927H10.876C14.9774 33.649 16.7684 30.7487 16.736 27.5671C16.736 23.9526 14.4147 20.771 9.63685 20.771H0V42.1928H2.16437V36.1001ZM2.16437 22.7893H9.63144C12.9375 22.7893 14.5933 24.8725 14.5933 27.5671C14.5933 30.2618 12.9375 32.28 9.5124 32.28H2.16437V22.7893Z" fill="white"/>
<path d="M12.0357 36.1011H9.30859L14.7899 42.1938H17.5765L12.0357 36.1011Z" fill="white"/>
<path d="M214.948 1.14712L214.558 0L213.573 0.70342C211.285 2.34067 208.874 3.79874 206.361 5.06462L206.09 5.1999C202.001 7.35175 197.66 8.98927 193.169 10.0751C191.299 10.5274 189.628 11.5763 188.407 13.0632C187.187 14.5501 186.484 16.394 186.405 18.316V18.619L186.578 18.8733C187.217 19.8138 187.977 20.6653 188.84 21.4056C188.889 21.4489 188.948 21.4868 189.002 21.5301L190.593 20.4966C190.393 20.3505 190.198 20.1936 190.009 20.0312C189.343 19.462 188.746 18.8174 188.229 18.1104C188.346 16.6316 188.928 15.2277 189.891 14.0994C190.854 12.9712 192.149 12.1762 193.591 11.8283C198.226 10.7023 202.704 9.00849 206.923 6.7853L207.194 6.65002C209.389 5.54154 211.511 4.29264 213.546 2.91108C213.628 3.46181 213.628 4.02149 213.546 4.57223C213.189 6.76365 211.528 8.13803 210.906 8.65748C209.658 9.68189 208.135 10.3144 206.528 10.4755C205.073 10.7299 203.569 11.0166 202.34 12.6399C202.145 12.905 201.918 13.2568 201.653 13.668C201.102 14.5855 200.464 15.448 199.748 16.2436C199.299 16.6998 198.826 17.1315 198.331 17.5368C198.228 17.618 197.979 17.8128 197.665 18.0779L197.216 18.4512C196.54 18.9923 194.635 20.291 192.552 21.6491L190.766 22.7908C188.034 24.5439 185.496 26.1348 185.447 26.1672C184.322 26.8223 183.301 27.6411 182.417 28.5967C181.542 29.5629 180.822 30.6579 180.28 31.8433C178.861 34.894 177.98 38.1671 177.677 41.518C176.941 41.7843 176.269 42.2027 175.705 42.7459C175.141 43.2892 174.697 43.945 174.404 44.6709C174.11 45.3967 173.972 46.1763 173.999 46.9589C174.027 47.7415 174.219 48.5095 174.562 49.2131C174.906 49.9166 175.394 50.54 175.995 51.0425C176.595 51.545 177.295 51.9155 178.048 52.1297C178.801 52.344 179.591 52.3974 180.366 52.2863C181.141 52.1752 181.884 51.9021 182.547 51.4849C184.269 52.3615 186.177 52.8106 188.11 52.7944C190.199 52.7429 192.269 52.3781 194.251 51.7122C195.587 51.3064 196.605 50.8356 197.227 49.8725C197.805 48.9678 198.175 47.9456 198.309 46.8802L198.347 46.6854C198.356 46.6435 198.375 46.6044 198.402 46.5714C198.429 46.5385 198.464 46.5126 198.504 46.496C198.738 46.3731 199.01 46.3404 199.267 46.4041C199.57 46.5069 200.03 46.6638 199.976 47.838C199.931 48.658 200.149 49.471 200.599 50.1582C201.049 50.8454 201.706 51.3709 202.476 51.6581C203.796 52.1288 205.679 51.8691 206.561 50.6138C207.161 49.7588 209.683 34.8842 208.633 22.7096C208.28 19.1718 207.367 15.7125 205.928 12.4614C206.193 12.4018 206.469 12.3531 206.799 12.299C208.714 12.0794 210.526 11.3109 212.015 10.086C212.783 9.45288 214.823 7.75926 215.289 4.90229C215.482 3.64147 215.365 2.35248 214.948 1.14712ZM179.587 50.7977C178.68 50.7991 177.798 50.4971 177.082 49.9397C176.366 49.3823 175.857 48.6015 175.635 47.7215C175.414 46.8415 175.493 45.9127 175.86 45.0828C176.227 44.2529 176.861 43.5695 177.661 43.1413C177.662 45.3462 178.406 47.4866 179.771 49.2177C180.17 49.691 180.616 50.1225 181.102 50.5055C180.62 50.6968 180.106 50.7959 179.587 50.7977ZM182.644 49.4125C182.092 49.0243 181.59 48.568 181.151 48.0544C179.912 46.588 179.468 44.6563 179.452 42.6435H179.587C180.37 42.6428 181.137 42.8681 181.795 43.2924C182.454 43.7167 182.975 44.3219 183.298 45.0354C183.621 45.7489 183.731 46.5404 183.615 47.3149C183.499 48.0894 183.162 48.814 182.644 49.4017V49.4125ZM206.842 22.8233C207.849 34.4784 205.468 48.2546 205.04 49.5965C204.77 49.8144 204.448 49.9584 204.106 50.0144C203.763 50.0704 203.412 50.0364 203.087 49.9158C202.681 49.7593 202.336 49.4779 202.1 49.1122C201.865 48.7465 201.752 48.3154 201.778 47.8812C201.837 46.7233 201.545 45.2191 199.84 44.6347C199.471 44.5208 199.082 44.4836 198.698 44.5255C198.314 44.5674 197.942 44.6874 197.606 44.8782C197.345 45.0243 197.119 45.2245 196.943 45.4653C196.767 45.7061 196.644 45.9819 196.583 46.2742L196.545 46.4744C196.459 47.315 196.175 48.1233 195.717 48.8336C195.474 49.2123 195.057 49.5262 193.737 49.9158C191.573 50.5651 187.736 51.7284 183.997 50.116C184.641 49.2918 185.04 48.3031 185.148 47.263C185.257 46.2228 185.07 45.1731 184.61 44.234C184.15 43.2948 183.435 42.504 182.547 41.9519C181.659 41.3999 180.633 41.1089 179.587 41.1122H179.512C179.863 38.1504 180.672 35.2609 181.909 32.5467C182.378 31.5319 182.998 30.5941 183.748 29.7655C184.522 28.9376 185.414 28.2284 186.394 27.6606C186.811 27.4009 196.496 21.3461 198.347 19.7932L198.764 19.4523C199.067 19.2034 199.305 19.014 199.451 18.9112C199.984 18.4719 200.495 18.0059 200.982 17.5152C201.795 16.628 202.52 15.6639 203.146 14.6365C203.385 14.2686 203.596 13.9385 203.769 13.7059C203.929 13.5067 204.111 13.3253 204.31 13.1648C205.658 16.2304 206.513 19.4903 206.842 22.8233Z" fill="white"/>
<path d="M192.932 16.5426C193.503 16.5426 193.965 16.0799 193.965 15.5091C193.965 14.9383 193.503 14.4756 192.932 14.4756C192.361 14.4756 191.898 14.9383 191.898 15.5091C191.898 16.0799 192.361 16.5426 192.932 16.5426Z" fill="white"/>
</svg>
