<svg width="36" height="36" viewBox="0 0 36 36" fill="none" xmlns="http://www.w3.org/2000/svg">
<g clip-path="url(#clip0_13_2156)">
<path d="M20.4004 0C21.0101 0.190547 21.659 0.302344 22.2208 0.586406C24.2022 1.58836 25.2696 3.23227 25.3793 5.45414C25.4278 6.4357 25.3997 7.42219 25.3884 8.40586C25.3793 9.23625 24.7626 9.84867 23.9723 9.84094C23.1961 9.8332 22.5949 9.22852 22.5829 8.4143C22.5703 7.54734 22.5815 6.68039 22.5787 5.81344C22.5738 4.01063 21.3841 2.81461 19.5848 2.8132C14.992 2.81039 10.3999 2.80969 5.80708 2.8132C4.02537 2.81461 2.82302 4.00992 2.82232 5.78602C2.81951 13.9282 2.81951 22.0704 2.82232 30.2133C2.82232 31.9894 4.02537 33.1847 5.80708 33.1861C10.3999 33.1896 14.992 33.1889 19.5848 33.1861C21.3841 33.1847 22.5738 31.9887 22.5787 30.1859C22.5808 29.3541 22.5759 28.5223 22.5801 27.6905C22.5844 26.7933 23.1574 26.1661 23.9723 26.1584C24.8006 26.1506 25.3961 26.7841 25.3891 27.6989C25.3807 28.8457 25.439 30.0023 25.3118 31.1372C25.0333 33.6185 23.0688 35.5598 20.5917 35.9325C20.5256 35.9423 20.4637 35.9761 20.3997 35.9993H5.00201C4.60826 35.898 4.20537 35.8256 3.82357 35.692C1.47302 34.8729 0.0112254 32.7769 0.0105223 30.2302C0.00770976 22.6744 0.00911601 15.1179 0.00981914 7.56211C0.00981914 6.85899 -0.0176027 6.15445 0.020366 5.45414C0.1406 3.23227 1.20021 1.58836 3.18091 0.586406C3.74271 0.302344 4.3924 0.190547 5.0013 0C10.1341 0 15.2669 0 20.3997 0H20.4004Z" fill="white"/>
<path d="M35.9396 18.8437C35.6795 19.8245 35.0361 20.5368 34.3252 21.2167C33.4702 22.0344 32.6539 22.893 31.8052 23.7177C31.337 24.1733 30.6992 24.2373 30.1522 23.9308C29.6213 23.6333 29.3211 23.0483 29.4793 22.443C29.5573 22.1434 29.7472 21.8432 29.9631 21.6147C30.6289 20.9087 31.3313 20.2366 32.0949 19.4765H31.6084C26.2063 19.4765 20.8041 19.4751 15.402 19.4793C14.9359 19.4793 14.5112 19.39 14.187 19.0391C13.7968 18.6158 13.6829 18.1145 13.8903 17.5731C14.097 17.0338 14.5119 16.7371 15.0863 16.6731C15.2256 16.6576 15.3676 16.664 15.5075 16.664C20.8745 16.664 26.2414 16.664 31.6084 16.664H32.0492C31.9473 16.5473 31.8875 16.4692 31.8179 16.3996C31.157 15.7344 30.4777 15.0869 29.8379 14.4027C29.0673 13.5794 29.4603 12.3074 30.5452 12.0606C31.0121 11.9544 31.4424 12.0669 31.7799 12.3995C32.9141 13.5189 34.0658 14.6235 35.1423 15.797C35.5128 16.2013 35.6809 16.7912 35.941 17.2968V18.8437H35.9396Z" fill="white"/>
</g>
<defs>
<clipPath id="clip0_13_2156">
<rect width="35.9395" height="36" fill="white"/>
</clipPath>
</defs>
</svg>
