<svg width="40" height="40" viewBox="0 0 40 40" fill="none" xmlns="http://www.w3.org/2000/svg">
<g opacity="0.7" clip-path="url(#clip0_13_2146)">
<path d="M9.901 40C9.34684 39.8312 8.76142 39.7291 8.24371 39.4833C6.00725 38.4229 4.80829 36.6312 4.76558 34.1489C4.71975 31.4677 4.75517 28.7854 4.75517 26.1031C4.75517 25.9625 4.75517 25.8218 4.75517 25.6666C3.62809 25.4083 2.64996 24.9177 1.85413 24.1114C0.526002 22.7666 -0.132332 21.1604 0.155168 19.2604C0.391627 17.6937 1.79892 16.4937 3.37808 16.4135C3.57288 16.4041 3.76767 16.4062 3.96246 16.4062C14.6573 16.4062 25.352 16.4062 36.0479 16.4062C38.2364 16.4062 39.3687 17.2656 39.9677 19.3822C39.975 19.4072 39.9895 19.4291 40 19.4531V20.5468C39.976 20.6197 39.9437 20.6916 39.9312 20.7666C39.5583 22.9697 38.327 24.4947 36.2885 25.3718C35.9833 25.5031 35.6562 25.5812 35.3218 25.6885C35.3218 25.8416 35.3218 25.9843 35.3218 26.126C35.3218 28.8041 35.3302 31.4822 35.3187 34.1614C35.3073 36.826 33.527 39.1187 30.9573 39.8072C30.6979 39.877 30.4354 39.9364 30.175 40.001H9.901V40ZM7.09371 18.7666V19.1614C7.09371 24.0937 7.09267 29.027 7.09371 33.9593C7.09371 36.1572 8.59371 37.6552 10.7937 37.6552C16.951 37.6572 23.1093 37.6562 29.2666 37.6552C31.4895 37.6552 32.9802 36.1625 32.9812 33.9343C32.9833 29.0145 32.9812 24.0947 32.9812 19.175C32.9812 19.0385 32.9812 18.902 32.9812 18.7656H7.09371V18.7666ZM35.3312 23.1906C36.6958 22.8177 37.8198 21.1541 37.6541 19.7958C37.5927 19.2937 37.225 18.8468 36.7177 18.7843C36.2645 18.7291 35.8 18.7729 35.3312 18.7729V23.1906ZM4.74267 18.75C4.34371 18.75 3.98225 18.7437 3.62183 18.751C2.901 18.7656 2.39058 19.2739 2.42079 19.9937C2.48225 21.4302 3.17809 22.4666 4.45725 23.1093C4.54059 23.151 4.63642 23.1666 4.74163 23.2V18.75H4.74267Z" fill="white"/>
<path d="M31.8125 0C31.8646 0.0333333 31.9125 0.0729167 31.9677 0.1C32.4187 0.320833 32.6698 0.678125 32.6635 1.18229C32.6573 1.68438 32.4021 2.04583 31.95 2.25521C30.9614 2.71354 29.9687 3.16458 28.9781 3.61979C21.5489 7.03333 14.1208 10.45 6.68748 13.8542C6.41664 13.9781 6.08644 14.0531 5.79477 14.0271C5.28331 13.9812 4.90415 13.5333 4.84269 13.0323C4.78019 12.5208 5.0479 12.0458 5.55935 11.8073C6.64165 11.3031 7.72915 10.8094 8.81352 10.3115C10.4291 9.56979 12.0458 8.82812 13.6604 8.08542C13.7656 8.0375 13.8656 7.98021 13.9979 7.91146C13.4187 6.49062 13.4271 5.09063 14.1489 3.73021C14.6739 2.73958 15.4698 2.03854 16.501 1.60417C18.3791 0.8125 21.1573 1.31354 22.551 3.99375C23.2771 3.66146 24.0052 3.32917 24.7333 2.99479C26.8562 2.02083 28.9802 1.04687 31.1021 0.071875C31.1344 0.0572917 31.1594 0.025 31.1875 0C31.3958 0 31.6031 0 31.8114 0L31.8125 0ZM20.3708 4.99687C19.8573 3.77083 18.3958 3.25833 17.2104 3.85417C16.0771 4.42292 15.5791 5.87813 16.1833 6.92396C17.5781 6.28229 18.975 5.63958 20.3708 4.99687Z" fill="white"/>
<path d="M24.9895 14.0573C24.1187 14.0782 23.5729 13.6125 23.5489 12.9313C23.5249 12.25 24.0333 11.7542 24.7916 11.7177C24.8177 11.7167 24.8437 11.7167 24.8697 11.7146C26.2447 11.6334 26.7364 11.1438 26.8416 9.77399C26.8791 9.28233 26.9093 8.78441 27.0114 8.30316C27.4083 6.42712 28.5833 5.3917 30.5385 5.15629C30.7958 5.12504 31.0552 5.08858 31.3135 5.09066C31.9708 5.09587 32.4916 5.60733 32.5052 6.23962C32.5187 6.86983 32.0218 7.38337 31.3562 7.4292C31.1885 7.44066 31.0197 7.45733 30.8531 7.48337C29.6874 7.66358 29.3541 8.01566 29.2281 9.2042C29.1781 9.66983 29.1593 10.1396 29.0833 10.6C28.7562 12.5907 27.6114 13.6969 25.6072 13.9823C25.3635 14.0167 25.1177 14.0417 24.9895 14.0573Z" fill="white"/>
<path d="M32.0021 14.0573C31.1334 14.0771 30.5865 13.6073 30.5657 12.926C30.5449 12.2437 31.0501 11.7541 31.8136 11.7177C31.8396 11.7166 31.8657 11.7166 31.8917 11.7146C33.2657 11.6323 33.7542 11.1427 33.8594 9.76977C33.8969 9.2781 33.9271 8.78018 34.0292 8.29893C34.4282 6.42498 35.6053 5.38956 37.5605 5.15623C37.8053 5.12706 38.0511 5.09164 38.2969 5.0906C38.9761 5.08643 39.5115 5.59893 39.523 6.24477C39.5334 6.87706 39.0376 7.38539 38.3688 7.4281C36.7376 7.53123 36.3157 7.95831 36.2053 9.59685C36.1782 9.99789 36.149 10.4041 36.0688 10.7969C35.6792 12.6844 34.5615 13.7094 32.6199 13.9833C32.3761 14.0177 32.1303 14.0427 32.0021 14.0583V14.0573Z" fill="white"/>
</g>
<defs>
<clipPath id="clip0_13_2146">
<rect width="40" height="40" fill="white"/>
</clipPath>
</defs>
</svg>
