<?xml version="1.0" encoding="utf-8"?><!-- Uploaded to: SVG Repo, www.svgrepo.com, Generator: SVG Repo Mixer Tools -->
<svg width="800px" height="800px" viewBox="0 0 24 24" xmlns="http://www.w3.org/2000/svg"><path fill="rgb(255, 255, 255)" d="M 3 9 h 6 V 3 H 3 z m 1 -5 h 4 v 4 H 4 z m 1 1 h 2 v 2 H 5 z m 10 4 h 6 V 3 h -6 z m 1 -5 h 4 v 4 h -4 z m 1 1 h 2 v 2 h -2 z M 3 21 h 6 v -6 H 3 z m 1 -5 h 4 v 4 H 4 z m 1 1 h 2 v 2 H 5 z m 15 2 h 1 v 2 h -2 v -3 h 1 z m 0 -3 h 1 v 1 h -1 z m 0 -1 v 1 h -1 v -1 z m -10 2 h 1 v 4 h -1 v -4 z m -4 -7 v 2 H 4 v -1 H 3 v -1 h 3 z m 4 -3 h 1 v 1 h -1 z m 3 -3 v 2 h -1 V 3 h 2 v 1 z m -3 0 h 1 v 1 h -1 z m 10 8 h 1 v 2 h -2 v -1 h 1 z m -1 -2 v 1 h -2 v 2 h -2 v -1 h 1 v -2 h 3 z m -7 4 h -1 v -1 h -1 v -1 h 2 v 2 z m 6 2 h 1 v 1 h -1 z m 2 -5 v 1 h -1 v -1 z m -9 3 v 1 h -1 v -1 z m 6 5 h 1 v 2 h -2 v -2 z m -3 0 h 1 v 1 h -1 v 1 h -2 v -1 h 1 v -1 z m 0 -1 v -1 h 2 v 1 z m 0 -5 h 1 v 3 h -1 v 1 h -1 v 1 h -1 v -2 h -1 v -1 h 3 v -1 h -1 v -1 z m -9 0 v 1 H 4 v -1 z m 12 4 h -1 v -1 h 1 z m 1 -2 h -2 v -1 h 2 z M 8 10 h 1 v 1 H 8 v 1 h 1 v 2 H 8 v -1 H 7 v 1 H 6 v -2 h 1 v -2 z m 3 0 V 8 h 3 v 3 h -2 v -1 h 1 V 9 h -1 v 1 z m 0 -4 h 1 v 1 h -1 z m -1 4 h 1 v 1 h -1 z m 3 -3 V 6 h 1 v 1 z"/><path fill="none" d="M 0 0 h 24 v 24 H 0 z"/></svg>